<mxfile host="Electron" modified="2024-06-08T09:34:22.985Z" agent="Mozilla/5.0 (X11; Linux x86_64) AppleWebKit/537.36 (KHTML, like Gecko) draw.io/24.4.8 Chrome/124.0.6367.207 Electron/30.0.6 Safari/537.36" etag="rKKmrmtKFweoBnELdkG1" version="24.4.8" type="device">
  <diagram name="Page-1" id="tMPGpnKy-ZowUA-VL0b9">
    <mxGraphModel dx="945" dy="560" grid="1" gridSize="10" guides="1" tooltips="1" connect="1" arrows="1" fold="1" page="1" pageScale="1" pageWidth="850" pageHeight="1100" math="0" shadow="0">
      <root>
        <mxCell id="0" />
        <mxCell id="1" parent="0" />
        <mxCell id="voaq_ugr3uCPQvjhjeNq-1" value="" style="rounded=0;whiteSpace=wrap;html=1;fillColor=#fff2cc;strokeColor=#d6b656;" parent="1" vertex="1">
          <mxGeometry x="260" y="40" width="315" height="200" as="geometry" />
        </mxCell>
        <mxCell id="GLRb8waI0ZLwu5YfJsHA-3" value="" style="verticalLabelPosition=bottom;html=1;verticalAlign=top;align=center;shape=mxgraph.azure.mobile;pointerEvents=1;fillColor=#dae8fc;strokeColor=#6c8ebf;" parent="1" vertex="1">
          <mxGeometry x="100" y="60" width="60" height="100" as="geometry" />
        </mxCell>
        <mxCell id="GLRb8waI0ZLwu5YfJsHA-5" value="" style="verticalLabelPosition=bottom;html=1;verticalAlign=top;align=center;shape=mxgraph.azure.tablet;pointerEvents=1;fillColor=#dae8fc;strokeColor=#6c8ebf;" parent="1" vertex="1">
          <mxGeometry x="400" y="57.5" width="160" height="105" as="geometry" />
        </mxCell>
        <mxCell id="voaq_ugr3uCPQvjhjeNq-2" value="RF Box" style="text;html=1;align=center;verticalAlign=middle;resizable=0;points=[];autosize=1;strokeColor=none;fillColor=none;" parent="1" vertex="1">
          <mxGeometry x="260" y="40" width="60" height="30" as="geometry" />
        </mxCell>
        <mxCell id="voaq_ugr3uCPQvjhjeNq-3" value="AWDL&lt;br&gt;&lt;div style=&quot;font-size: 14px;&quot;&gt;fe80::&amp;lt;&lt;b&gt;a&lt;/b&gt;&amp;gt;/10&lt;br style=&quot;font-size: 14px;&quot;&gt;&lt;/div&gt;" style="endArrow=classic;dashed=1;html=1;strokeWidth=1;rounded=0;exitX=1;exitY=0.5;exitDx=0;exitDy=0;exitPerimeter=0;entryX=0;entryY=0.5;entryDx=0;entryDy=0;entryPerimeter=0;startArrow=classic;startFill=1;endFill=1;fontStyle=0;fontSize=14;labelBorderColor=none;textShadow=0;spacingLeft=0;spacingRight=0;spacing=2;labelBackgroundColor=none;verticalAlign=bottom;" parent="1" source="GLRb8waI0ZLwu5YfJsHA-3" target="GLRb8waI0ZLwu5YfJsHA-5" edge="1">
          <mxGeometry x="0.2857" width="50" height="50" relative="1" as="geometry">
            <mxPoint x="360" y="250" as="sourcePoint" />
            <mxPoint x="410" y="200" as="targetPoint" />
            <mxPoint as="offset" />
          </mxGeometry>
        </mxCell>
        <mxCell id="voaq_ugr3uCPQvjhjeNq-4" value="Sender" style="text;html=1;align=center;verticalAlign=middle;resizable=0;points=[];autosize=1;strokeColor=none;fillColor=none;fontSize=16;fontStyle=1" parent="1" vertex="1">
          <mxGeometry x="90" y="10" width="80" height="30" as="geometry" />
        </mxCell>
        <mxCell id="voaq_ugr3uCPQvjhjeNq-8" value="&lt;div&gt;Capture&amp;nbsp;&lt;/div&gt;&lt;div&gt;PCAP&lt;/div&gt;" style="endArrow=none;html=1;rounded=0;exitX=0;exitY=0.5;exitDx=0;exitDy=0;exitPerimeter=0;fontSize=14;fontStyle=0;verticalAlign=bottom;" parent="1" source="GLRb8waI0ZLwu5YfJsHA-3" edge="1">
          <mxGeometry x="0.5451" width="50" height="50" relative="1" as="geometry">
            <mxPoint x="360" y="220" as="sourcePoint" />
            <mxPoint x="213" y="310" as="targetPoint" />
            <Array as="points">
              <mxPoint x="90" y="110" />
              <mxPoint x="90" y="310" />
            </Array>
            <mxPoint as="offset" />
          </mxGeometry>
        </mxCell>
        <mxCell id="voaq_ugr3uCPQvjhjeNq-9" value="USB" style="text;html=1;align=center;verticalAlign=middle;resizable=0;points=[];autosize=1;strokeColor=none;fillColor=none;" parent="1" vertex="1">
          <mxGeometry x="160" y="310" width="50" height="30" as="geometry" />
        </mxCell>
        <mxCell id="voaq_ugr3uCPQvjhjeNq-10" value="Receiver" style="text;html=1;align=center;verticalAlign=middle;resizable=0;points=[];autosize=1;strokeColor=none;fillColor=none;fontSize=16;fontStyle=1" parent="1" vertex="1">
          <mxGeometry x="435" y="10" width="90" height="30" as="geometry" />
        </mxCell>
        <mxCell id="voaq_ugr3uCPQvjhjeNq-11" value="&lt;div&gt;Capture&lt;/div&gt;&lt;div&gt;PCAP&lt;/div&gt;" style="endArrow=none;html=1;rounded=0;entryX=0.749;entryY=1.003;entryDx=0;entryDy=0;entryPerimeter=0;fontStyle=0;fontSize=14;verticalAlign=bottom;" parent="1" target="GLRb8waI0ZLwu5YfJsHA-5" edge="1">
          <mxGeometry x="-0.0765" width="50" height="50" relative="1" as="geometry">
            <mxPoint x="338" y="310" as="sourcePoint" />
            <mxPoint x="410" y="170" as="targetPoint" />
            <Array as="points">
              <mxPoint x="520" y="310" />
            </Array>
            <mxPoint as="offset" />
          </mxGeometry>
        </mxCell>
        <mxCell id="voaq_ugr3uCPQvjhjeNq-12" value="USB" style="text;html=1;align=center;verticalAlign=middle;resizable=0;points=[];autosize=1;strokeColor=none;fillColor=none;" parent="1" vertex="1">
          <mxGeometry x="340" y="310" width="50" height="30" as="geometry" />
        </mxCell>
        <mxCell id="voaq_ugr3uCPQvjhjeNq-13" value="&lt;div&gt;Measurement&lt;/div&gt;&lt;div&gt;Laptop&lt;br&gt;&lt;/div&gt;" style="text;html=1;align=center;verticalAlign=middle;resizable=0;points=[];autosize=1;strokeColor=none;fillColor=none;" parent="1" vertex="1">
          <mxGeometry x="225" y="290" width="100" height="40" as="geometry" />
        </mxCell>
        <mxCell id="voaq_ugr3uCPQvjhjeNq-14" value="" style="points=[[0.03,0.36,0],[0.18,0,0],[0.5,0.34,0],[0.82,0,0],[0.97,0.36,0],[1,0.67,0],[0.975,0.975,0],[0.5,1,0],[0.025,0.975,0],[0,0.67,0]];verticalLabelPosition=bottom;sketch=0;html=1;verticalAlign=top;aspect=fixed;align=center;pointerEvents=1;shape=mxgraph.cisco19.wireless_access_point;fillColor=#333333;strokeColor=none;" parent="1" vertex="1">
          <mxGeometry x="290" y="140" width="80" height="80" as="geometry" />
        </mxCell>
        <mxCell id="voaq_ugr3uCPQvjhjeNq-16" value="&lt;div&gt;WiFi&lt;br&gt;&lt;/div&gt;&lt;div&gt;fe80::&amp;lt;&lt;b&gt;c&lt;/b&gt;&amp;gt;/10&lt;br&gt;&lt;/div&gt;" style="endArrow=none;dashed=1;html=1;rounded=0;exitX=1;exitY=0.67;exitDx=0;exitDy=0;exitPerimeter=0;entryX=0.249;entryY=0.997;entryDx=0;entryDy=0;entryPerimeter=0;fontStyle=0;fontSize=15;labelBorderColor=none;textShadow=0;labelBackgroundColor=none;verticalAlign=top;spacing=-2;" parent="1" source="voaq_ugr3uCPQvjhjeNq-14" target="GLRb8waI0ZLwu5YfJsHA-5" edge="1">
          <mxGeometry x="-0.0178" width="50" height="50" relative="1" as="geometry">
            <mxPoint x="360" y="290" as="sourcePoint" />
            <mxPoint x="410" y="240" as="targetPoint" />
            <Array as="points">
              <mxPoint x="440" y="194" />
            </Array>
            <mxPoint as="offset" />
          </mxGeometry>
        </mxCell>
        <mxCell id="voaq_ugr3uCPQvjhjeNq-22" value="&lt;div&gt;Internet Access&lt;/div&gt;&lt;div&gt;via Laptop&lt;br&gt;&lt;/div&gt;" style="endArrow=none;html=1;rounded=0;exitX=0.5;exitY=0;exitDx=0;exitDy=0;exitPerimeter=0;fontStyle=2;fontSize=14;labelBorderColor=none;textShadow=0;labelBackgroundColor=none;verticalAlign=middle;labelPosition=right;verticalLabelPosition=middle;align=left;spacingLeft=2;entryX=0;entryY=0.67;entryDx=0;entryDy=0;entryPerimeter=0;" parent="1" source="voaq_ugr3uCPQvjhjeNq-6" target="voaq_ugr3uCPQvjhjeNq-14" edge="1">
          <mxGeometry x="-0.5417" width="50" height="50" relative="1" as="geometry">
            <mxPoint x="180" y="220" as="sourcePoint" />
            <mxPoint x="291" y="200" as="targetPoint" />
            <Array as="points">
              <mxPoint x="276" y="194" />
            </Array>
            <mxPoint as="offset" />
          </mxGeometry>
        </mxCell>
        <mxCell id="voaq_ugr3uCPQvjhjeNq-6" value="" style="verticalLabelPosition=bottom;html=1;verticalAlign=top;align=center;strokeColor=default;fillColor=#FFFFFF;shape=mxgraph.azure.laptop;pointerEvents=1;" parent="1" vertex="1">
          <mxGeometry x="200" y="280" width="150" height="90" as="geometry" />
        </mxCell>
        <mxCell id="voaq_ugr3uCPQvjhjeNq-23" value="" style="fontColor=#0066CC;verticalAlign=top;verticalLabelPosition=bottom;labelPosition=center;align=center;html=1;outlineConnect=0;fillColor=#CCCCCC;strokeColor=#333333;gradientColor=none;gradientDirection=north;strokeWidth=2;shape=mxgraph.networks.radio_tower;" parent="1" vertex="1">
          <mxGeometry x="190" y="140" width="55" height="100" as="geometry" />
        </mxCell>
        <mxCell id="voaq_ugr3uCPQvjhjeNq-24" value="&lt;div style=&quot;font-size: 14px;&quot;&gt;&lt;span style=&quot;background-color: initial;&quot;&gt;Cellular&lt;/span&gt;&lt;/div&gt;&lt;div style=&quot;font-size: 14px;&quot;&gt;&lt;span style=&quot;background-color: initial;&quot;&gt;10.113.x.x/x&lt;/span&gt;&lt;br&gt;&lt;/div&gt;" style="endArrow=none;dashed=1;html=1;rounded=0;entryX=0.33;entryY=0.5;entryDx=0;entryDy=0;entryPerimeter=0;fontStyle=0;fontSize=14;labelBorderColor=none;textShadow=0;labelBackgroundColor=none;verticalAlign=top;" parent="1" target="voaq_ugr3uCPQvjhjeNq-23" edge="1">
          <mxGeometry x="-0.3193" width="50" height="50" relative="1" as="geometry">
            <mxPoint x="150" y="160" as="sourcePoint" />
            <mxPoint x="410" y="200" as="targetPoint" />
            <Array as="points">
              <mxPoint x="150" y="190" />
            </Array>
            <mxPoint as="offset" />
          </mxGeometry>
        </mxCell>
        <mxCell id="RHVGhRYyqxNj4GJr4SZu-1" value="1" style="ellipse;whiteSpace=wrap;html=1;fillColor=#ffe6cc;strokeColor=#d79b00;" vertex="1" parent="1">
          <mxGeometry x="360" y="75" width="30" height="30" as="geometry" />
        </mxCell>
        <mxCell id="RHVGhRYyqxNj4GJr4SZu-2" value="2" style="ellipse;whiteSpace=wrap;html=1;fillColor=#ffe6cc;strokeColor=#d79b00;" vertex="1" parent="1">
          <mxGeometry x="444" y="165" width="30" height="30" as="geometry" />
        </mxCell>
        <mxCell id="RHVGhRYyqxNj4GJr4SZu-3" value="3" style="ellipse;whiteSpace=wrap;html=1;fillColor=#ffe6cc;strokeColor=#d79b00;" vertex="1" parent="1">
          <mxGeometry x="115" y="165" width="30" height="30" as="geometry" />
        </mxCell>
        <mxCell id="RHVGhRYyqxNj4GJr4SZu-4" value="4" style="ellipse;whiteSpace=wrap;html=1;fillColor=#ffe6cc;strokeColor=#d79b00;" vertex="1" parent="1">
          <mxGeometry x="178" y="276" width="30" height="30" as="geometry" />
        </mxCell>
        <mxCell id="RHVGhRYyqxNj4GJr4SZu-5" value="4" style="ellipse;whiteSpace=wrap;html=1;fillColor=#ffe6cc;strokeColor=#d79b00;" vertex="1" parent="1">
          <mxGeometry x="343" y="276" width="30" height="30" as="geometry" />
        </mxCell>
      </root>
    </mxGraphModel>
  </diagram>
</mxfile>
